<svg id="Layer_1" data-name="Layer 1" xmlns="http://www.w3.org/2000/svg" xmlns:xlink="http://www.w3.org/1999/xlink" viewBox="0 0 512 512"><defs><style>.cls-1{fill:none;}.cls-1,.cls-2{stroke:#4a00e0;stroke-miterlimit:10;}.cls-2,.cls-34{fill:#fff;}.cls-3{fill:url(#linear-gradient);}.cls-4{fill:url(#linear-gradient-2);}.cls-5{fill:url(#linear-gradient-3);}.cls-6{fill:url(#linear-gradient-4);}.cls-7{fill:url(#linear-gradient-5);}.cls-8{fill:url(#linear-gradient-6);}.cls-9{fill:url(#linear-gradient-7);}.cls-10{fill:url(#linear-gradient-8);}.cls-11{fill:url(#linear-gradient-9);}.cls-12{fill:url(#linear-gradient-10);}.cls-13{fill:url(#linear-gradient-11);}.cls-14{fill:url(#linear-gradient-12);}.cls-15{fill:url(#linear-gradient-13);}.cls-16{fill:url(#linear-gradient-14);}.cls-17{fill:url(#linear-gradient-15);}.cls-18{fill:url(#linear-gradient-16);}.cls-19{fill:url(#linear-gradient-17);}.cls-20{fill:url(#linear-gradient-18);}.cls-21{fill:url(#linear-gradient-19);}.cls-22{fill:url(#linear-gradient-20);}.cls-23{fill:url(#linear-gradient-21);}.cls-24{fill:url(#linear-gradient-22);}.cls-25{fill:url(#linear-gradient-23);}.cls-26{fill:url(#linear-gradient-24);}.cls-27{fill:url(#linear-gradient-25);}.cls-28{fill:url(#linear-gradient-26);}.cls-29{fill:url(#linear-gradient-27);}.cls-30{fill:url(#linear-gradient-28);}.cls-31{fill:url(#linear-gradient-29);}.cls-32{fill:url(#linear-gradient-30);}.cls-33{fill:url(#linear-gradient-31);}.cls-34{font-size:132px;font-family:LiebeLotte-Thin, LiebeLotte;font-weight:200;}</style><linearGradient id="linear-gradient" y1="218.71" x2="417.04" y2="218.71" gradientUnits="userSpaceOnUse"><stop offset="0" stop-color="#2ebf91"/><stop offset="0.5" stop-color="#8360c3"/><stop offset="1" stop-color="#4a00e0"/></linearGradient><linearGradient id="linear-gradient-2" x1="196.1" y1="106.56" x2="239.17" y2="8.31" xlink:href="#linear-gradient"/><linearGradient id="linear-gradient-3" x1="359.62" y1="422.03" x2="309.88" y2="377.95" xlink:href="#linear-gradient"/><linearGradient id="linear-gradient-4" x1="64.29" y1="360.36" x2="39.42" y2="432.7" xlink:href="#linear-gradient"/><linearGradient id="linear-gradient-5" x1="46.01" y1="239.15" x2="20.1" y2="197.04" xlink:href="#linear-gradient"/><linearGradient id="linear-gradient-6" x1="67.32" y1="193.97" x2="45.24" y2="175.42" xlink:href="#linear-gradient"/><linearGradient id="linear-gradient-7" x1="43.34" y1="180.39" x2="34.8" y2="163.6" xlink:href="#linear-gradient"/><linearGradient id="linear-gradient-8" x1="16.65" y1="214.74" x2="5.75" y2="187.06" xlink:href="#linear-gradient"/><linearGradient id="linear-gradient-9" x1="52.28" y1="345.87" x2="11.31" y2="373.11" xlink:href="#linear-gradient"/><linearGradient id="linear-gradient-10" x1="94.56" y1="388.27" x2="73.62" y2="423.83" xlink:href="#linear-gradient"/><linearGradient id="linear-gradient-11" x1="260.85" y1="396.99" x2="249.95" y2="369.31" xlink:href="#linear-gradient"/><linearGradient id="linear-gradient-12" x1="397.37" y1="298.38" x2="369.48" y2="286.16" xlink:href="#linear-gradient"/><linearGradient id="linear-gradient-13" x1="279.87" y1="99.99" x2="295.22" y2="76.67" xlink:href="#linear-gradient"/><linearGradient id="linear-gradient-14" x1="182.44" y1="95.05" x2="198.08" y2="50.41" xlink:href="#linear-gradient"/><linearGradient id="linear-gradient-15" x1="166.47" y1="17.69" x2="192.06" y2="-12.17" xlink:href="#linear-gradient"/><linearGradient id="linear-gradient-16" x1="264.56" y1="53.47" x2="257.05" y2="34.41" xlink:href="#linear-gradient"/><linearGradient id="linear-gradient-17" x1="-2504.08" y1="4508.31" x2="-2511.58" y2="4489.25" gradientTransform="translate(4440.19 -2998.74) rotate(24.36)" xlink:href="#linear-gradient"/><linearGradient id="linear-gradient-18" x1="19523.82" y1="15715.38" x2="19516.31" y2="15696.32" gradientTransform="translate(16501.22 19219.31) rotate(-169.06)" xlink:href="#linear-gradient"/><linearGradient id="linear-gradient-19" x1="13087.95" y1="-2800.22" x2="13080.45" y2="-2819.28" gradientTransform="translate(-2815.37 13207.04) rotate(-63.84)" xlink:href="#linear-gradient"/><linearGradient id="linear-gradient-20" x1="4724.21" y1="-2592.02" x2="4716.71" y2="-2611.08" gradientTransform="translate(-2776.09 4621.4) rotate(-24.75)" xlink:href="#linear-gradient"/><linearGradient id="linear-gradient-21" x1="7832.75" y1="-3315.97" x2="7825.25" y2="-3335.03" gradientTransform="translate(-3498.81 7886.06) rotate(-39.72)" xlink:href="#linear-gradient"/><linearGradient id="linear-gradient-22" x1="302.03" y1="418.54" x2="289.11" y2="403.22" xlink:href="#linear-gradient"/><linearGradient id="linear-gradient-23" x1="250.65" y1="432.54" x2="236.99" y2="416.85" xlink:href="#linear-gradient"/><linearGradient id="linear-gradient-24" x1="7534.03" y1="-3425.52" x2="7527.82" y2="-3441.3" gradientTransform="translate(-3498.81 7886.06) rotate(-39.72)" xlink:href="#linear-gradient"/><linearGradient id="linear-gradient-25" x1="15.01" y1="376.86" x2="21.76" y2="388.56" xlink:href="#linear-gradient"/><linearGradient id="linear-gradient-26" x1="22.57" y1="238.08" x2="-5.7" y2="228.07" xlink:href="#linear-gradient"/><linearGradient id="linear-gradient-27" x1="247.62" y1="84.71" x2="273.78" y2="47.46" xlink:href="#linear-gradient"/><linearGradient id="linear-gradient-28" x1="207" y1="17.59" x2="156.67" y2="94.37" xlink:href="#linear-gradient"/><linearGradient id="linear-gradient-29" x1="416.36" y1="280.11" x2="394.31" y2="269.37" xlink:href="#linear-gradient"/><linearGradient id="linear-gradient-30" x1="297.4" y1="427.23" x2="262.7" y2="388.28" xlink:href="#linear-gradient"/><linearGradient id="linear-gradient-31" x1="82.92" y1="398.14" x2="63.56" y2="427.18" xlink:href="#linear-gradient"/><symbol id="paint_stain" data-name="paint_stain" viewBox="0 0 433.22 446.5"><path class="cls-3" d="M148.16,65.27s-13-32,5-33,23,15,21,56,13,47,31,32,23-31,35-30,14,4,46,29c19.2,15,32.28,19.92,39.67,21.46a29.87,29.87,0,0,1,21.25,16.36,29.35,29.35,0,0,1,2.08,6.18c4.5,21,11.25,18.94,14.35,16.6a59.17,59.17,0,0,1,7.94-5l6.5-3.47a9.74,9.74,0,0,1,7.05-.93c3.05.81,5.64,3.35,1.1,10.77,0,0-2.94,5-12.94,6s-12,8-12,8c-4.5,7.72.51,10.88,4.66,12.16a19.89,19.89,0,0,0,5.94.84h24.05A40.06,40.06,0,0,1,406,209.51c7.31,1.91,16.37,6.61,7.18,17.76a20.54,20.54,0,0,1-8,6c-4.08,1.64-22.14,6.44-28.61,8.14-1.21.32-2.43.59-3.67.8-8.41,1.42-11.34,7-12.32,11.35a19.28,19.28,0,0,0-.13,7.34l1.73,10.37c2,12-5,15-5,15-4.9,2.1-9.81,7.64-12.3,10.77a40.33,40.33,0,0,1-3,3.15c-5.39,5.38,4.28,22.08,4.28,22.08s-4-9,4,8-8,30-8,30l-7,5c-12.22,5.75-21.85-1.93-26.31-6.71a51.33,51.33,0,0,0-7.86-6.94l-8.69-6.13a22.17,22.17,0,0,0-9.35-3.88c-11.68-1.82-4.79,9.66-4.79,9.66l11.59,13.94A9.4,9.4,0,0,1,292,371.8c-.32,4.67-4.34,3.5-7.57,1.77a25.23,25.23,0,0,1-5.73-4.27c-26.16-25.63-28.53-25-28.53-25a17.19,17.19,0,0,0-8.92.3c-10.4,3.1-15.73,14.71-11.84,24.83a56.37,56.37,0,0,0,3.76,7.87l2.05,2.45a69.66,69.66,0,0,0,9.68,9.28c6.23,5-3.73,10.27-3.73,10.27-19-1-34-37-34-37s-5-16-14-21c-15.88-8.82-20.19-2.38-21.15,4a20.83,20.83,0,0,0,1.72,11.53l4.2,9.32a42.22,42.22,0,0,1,3.74,20.53c-.5,6.42-2.56,11.92-8.88,7.72a16.87,16.87,0,0,1-6.09-7.47l-7-16.44a25.92,25.92,0,0,0-1.35-2.75c-6.81-11.73-13.09-.79-14.43,1.84-.27.53-.55,1.06-.85,1.58-2.52,4.46-12.39,21.82-15.87,26.17S112,411.05,103.84,400a18.8,18.8,0,0,1-3.23-7.66c-1.16-6.17-3.9-20.19-5.45-24.06-7.35-18.38-25.4-27.09-35.95-30.73a50.61,50.61,0,0,0-11.48-2.43c-7.77-.77-25-5.09-11.57-28.84,6.73-11.87,7.66-20.46,6.33-26.5a14.07,14.07,0,0,0-16.92-10.48c-6.95,1.59-16.71,3.06-20.41,0C0,265-3.63,253.43,6,250.15a13.31,13.31,0,0,1,9.3.42c4.1,1.69,11.37,4.65,16.85,6.7,8,3,32-10,30-21s-8-24,11-25,52-6,42-21c-5.35-8-2.39-10.62,1.52-11.28a13.38,13.38,0,0,1,10.89,3.2h0a10.79,10.79,0,0,0,9.65,2.28c8.95-2.24,9.63-8.48,8.56-13.44a20.08,20.08,0,0,0-4.71-9c-6.62-7.45-25.25-30.56-.91-29.72,0,0,7,0,19,11s21-11,13-31S148.16,65.27,148.16,65.27Z"/><path class="cls-4" d="M205,100.75c-4,2.65-4.39-1.34-3.6-6.57A51.45,51.45,0,0,1,209.19,74c3.78-5.83,9.11-16.58,11-32.72s5.59-21.4,8.2-23.18a2.16,2.16,0,0,1,3.33,1.45c.74,4.21,1.4,13.87-4.53,25.73-6.61,13.22-15,40.33-17.75,49.34A11.12,11.12,0,0,1,205,100.75Z"/><path class="cls-5" d="M320.51,381.16a40.53,40.53,0,0,0-4.4-7c-4.69-5.89-13.23-14.58-13.95-.87-1,19,21,15,30,29s11,19,19,10C358.88,403.59,333.12,406.07,320.51,381.16Z"/><path class="cls-6" d="M63.77,373.84c-1-2.77-3.47-2.93-5.89-2.29a12,12,0,0,0-7.5,6.29L44,390.6A39.75,39.75,0,0,0,39.9,406c-.43,7.39-1.6,17.76-4.74,20.26-5,4-11,29,7,17s-1.23-37.87,9-51.9a67.25,67.25,0,0,1,10.67-11.22A5.78,5.78,0,0,0,63.77,373.84Z"/><circle class="cls-7" cx="33.16" cy="218.27" r="11"/><circle class="cls-8" cx="58.16" cy="186.27" r="6"/><circle class="cls-9" cx="36.16" cy="166.27" r="6"/><circle class="cls-10" cx="10.16" cy="198.27" r="6"/><circle class="cls-11" cx="36.35" cy="356.47" r="6"/><circle class="cls-12" cx="87.35" cy="400.51" r="6"/><circle class="cls-13" cx="254.37" cy="380.52" r="6"/><circle class="cls-14" cx="379.41" cy="290.51" r="6"/><circle class="cls-15" cx="287.44" cy="88.49" r="6"/><circle class="cls-16" cx="191.42" cy="69.44" r="6"/><circle class="cls-17" cx="178.09" cy="4.13" r="4.13"/><circle class="cls-18" cx="260.09" cy="42.13" r="4.13"/><circle class="cls-19" cx="300.09" cy="63.13" r="4.13"/><circle class="cls-20" cx="317.09" cy="96.13" r="4.13"/><circle class="cls-21" cx="429.09" cy="224.13" r="4.13"/><circle class="cls-22" cx="420.09" cy="281.13" r="4.13"/><circle class="cls-23" cx="396.09" cy="324.13" r="4.13"/><circle class="cls-24" cx="294.09" cy="409.13" r="4.13"/><circle class="cls-25" cx="242.15" cy="422.78" r="3.42"/><circle class="cls-26" cx="98.15" cy="431.78" r="3.42"/><circle class="cls-27" cx="20.15" cy="385.78" r="3.42"/><circle class="cls-28" cx="6.16" cy="232.27" r="6"/><circle class="cls-29" cx="259.16" cy="68.27" r="11"/><circle class="cls-30" cx="190.16" cy="43.27" r="11"/><circle class="cls-31" cx="396.16" cy="270.27" r="11"/><circle class="cls-32" cx="275.16" cy="402.27" r="11"/><circle class="cls-33" cx="70.16" cy="417.27" r="11"/></symbol><symbol id="edit_object" data-name="edit_object" viewBox="0 0 483 482"><rect class="cls-1" x="4.45" y="3.27" width="475" height="475"/><rect class="cls-2" x="0.5" y="474.5" width="7" height="7"/><rect class="cls-2" x="238.5" y="474.5" width="7" height="7"/><rect class="cls-2" x="475.5" y="229.5" width="7" height="7"/><rect class="cls-2" x="475.5" y="0.5" width="7" height="7"/><rect class="cls-2" x="238.5" y="0.5" width="7" height="7"/><rect class="cls-2" x="0.5" y="0.5" width="7" height="7"/><rect class="cls-2" x="0.5" y="229.5" width="7" height="7"/><rect class="cls-2" x="475.5" y="474.5" width="7" height="7"/></symbol></defs><use width="433.22" height="446.5" transform="translate(39.39 32.75)" xlink:href="#paint_stain"/><text class="cls-34" transform="translate(87.21 293.48)">Önbeszéd</text><line class="cls-1" x1="185.57" y1="189.5" x2="185.57" y2="322.5"/><use width="483" height="482" transform="translate(14.5 15)" xlink:href="#edit_object"/></svg>